<svg width="33" height="33" viewBox="0 0 33 33" fill="none" xmlns="http://www.w3.org/2000/svg">
<circle cx="16.5" cy="16.5" r="16.5" fill="white"/>
<path d="M17.064 25.476C15.3867 25.476 13.902 25.1247 12.61 24.422C11.3407 23.6967 10.3433 22.688 9.618 21.396C8.91533 20.0813 8.564 18.54 8.564 16.772V16.364C8.564 14.596 8.91533 13.066 9.618 11.774C10.3207 10.4593 11.3067 9.45067 12.576 8.748C13.8453 8.02267 15.3187 7.66 16.996 7.66C18.6507 7.66 20.09 8.034 21.314 8.782C22.538 9.50733 23.49 10.5273 24.17 11.842C24.85 13.134 25.19 14.6413 25.19 16.364V17.826H12.916C12.9613 18.982 13.392 19.9227 14.208 20.648C15.024 21.3733 16.0213 21.736 17.2 21.736C18.4013 21.736 19.2853 21.4753 19.852 20.954C20.4187 20.4327 20.8493 19.8547 21.144 19.22L24.646 21.056C24.3287 21.6453 23.864 22.2913 23.252 22.994C22.6627 23.674 21.8693 24.2633 20.872 24.762C19.8747 25.238 18.6053 25.476 17.064 25.476ZM12.95 14.63H20.838C20.7473 13.6553 20.3507 12.8733 19.648 12.284C18.968 11.6947 18.0727 11.4 16.962 11.4C15.806 11.4 14.888 11.6947 14.208 12.284C13.528 12.8733 13.1087 13.6553 12.95 14.63Z" fill="black"/>
</svg>
