<svg width="116" height="22" viewBox="0 0 116 22" fill="none" xmlns="http://www.w3.org/2000/svg">
<path d="M7.104 17.336C5.92 17.336 4.872 17.088 3.96 16.592C3.064 16.08 2.36 15.368 1.848 14.456C1.352 13.528 1.104 12.44 1.104 11.192V10.904C1.104 9.656 1.352 8.576 1.848 7.664C2.344 6.736 3.04 6.024 3.936 5.528C4.832 5.016 5.872 4.76 7.056 4.76C8.224 4.76 9.24 5.024 10.104 5.552C10.968 6.064 11.64 6.784 12.12 7.712C12.6 8.624 12.84 9.688 12.84 10.904V11.936H4.176C4.208 12.752 4.512 13.416 5.088 13.928C5.664 14.44 6.368 14.696 7.2 14.696C8.048 14.696 8.672 14.512 9.072 14.144C9.472 13.776 9.776 13.368 9.984 12.92L12.456 14.216C12.232 14.632 11.904 15.088 11.472 15.584C11.056 16.064 10.496 16.48 9.792 16.832C9.088 17.168 8.192 17.336 7.104 17.336ZM4.2 9.68H9.768C9.704 8.992 9.424 8.44 8.928 8.024C8.448 7.608 7.816 7.4 7.032 7.4C6.216 7.4 5.568 7.608 5.088 8.024C4.608 8.44 4.312 8.992 4.2 9.68ZM17.676 17L13.884 5.096H17.1L19.86 14.792H20.292L23.052 5.096H26.268L22.476 17H17.676ZM33.4009 17.336C32.2169 17.336 31.1689 17.088 30.2569 16.592C29.3609 16.08 28.6569 15.368 28.1449 14.456C27.6489 13.528 27.4009 12.44 27.4009 11.192V10.904C27.4009 9.656 27.6489 8.576 28.1449 7.664C28.6409 6.736 29.3369 6.024 30.2329 5.528C31.1289 5.016 32.1689 4.76 33.3529 4.76C34.5209 4.76 35.5369 5.024 36.4009 5.552C37.2649 6.064 37.9369 6.784 38.4169 7.712C38.8969 8.624 39.1369 9.688 39.1369 10.904V11.936H30.4729C30.5049 12.752 30.8089 13.416 31.3849 13.928C31.9609 14.44 32.6649 14.696 33.4969 14.696C34.3449 14.696 34.9689 14.512 35.3689 14.144C35.7689 13.776 36.0729 13.368 36.2809 12.92L38.7529 14.216C38.5289 14.632 38.2009 15.088 37.7689 15.584C37.3529 16.064 36.7929 16.48 36.0889 16.832C35.3849 17.168 34.4889 17.336 33.4009 17.336ZM30.4969 9.68H36.0649C36.0009 8.992 35.7209 8.44 35.2249 8.024C34.7449 7.608 34.1129 7.4 33.3289 7.4C32.5129 7.4 31.8649 7.608 31.3849 8.024C30.9049 8.44 30.6089 8.992 30.4969 9.68ZM41.8284 17V5.096H44.8044V6.44H45.2364C45.4124 5.96 45.7004 5.608 46.1004 5.384C46.5164 5.16 46.9964 5.048 47.5404 5.048H48.9804V7.736H47.4924C46.7244 7.736 46.0924 7.944 45.5964 8.36C45.1004 8.76 44.8524 9.384 44.8524 10.232V17H41.8284ZM52.6401 21.8V19.16H59.1201C59.5681 19.16 59.7921 18.92 59.7921 18.44V15.44H59.3601C59.2321 15.712 59.0321 15.984 58.7601 16.256C58.4881 16.528 58.1201 16.752 57.6561 16.928C57.1921 17.104 56.6001 17.192 55.8801 17.192C54.9521 17.192 54.1361 16.984 53.4321 16.568C52.7441 16.136 52.2081 15.544 51.8241 14.792C51.4401 14.04 51.2481 13.176 51.2481 12.2V5.096H54.2721V11.96C54.2721 12.856 54.4881 13.528 54.9201 13.976C55.3681 14.424 56.0001 14.648 56.8161 14.648C57.7441 14.648 58.4641 14.344 58.9761 13.736C59.4881 13.112 59.7441 12.248 59.7441 11.144V5.096H62.7681V19.112C62.7681 19.928 62.5281 20.576 62.0481 21.056C61.5681 21.552 60.9281 21.8 60.1281 21.8H52.6401ZM70.6931 17C69.9091 17 69.2691 16.76 68.7731 16.28C68.2931 15.784 68.0531 15.128 68.0531 14.312V7.592H65.0771V5.096H68.0531V1.4H71.0771V5.096H74.3411V7.592H71.0771V13.784C71.0771 14.264 71.3011 14.504 71.7491 14.504H74.0531V17H70.6931ZM80.7744 17.336C79.9264 17.336 79.1664 17.192 78.4944 16.904C77.8224 16.6 77.2864 16.168 76.8864 15.608C76.5024 15.032 76.3104 14.336 76.3104 13.52C76.3104 12.704 76.5024 12.024 76.8864 11.48C77.2864 10.92 77.8304 10.504 78.5184 10.232C79.2224 9.944 80.0224 9.8 80.9184 9.8H84.1824V9.128C84.1824 8.568 84.0064 8.112 83.6544 7.76C83.3024 7.392 82.7424 7.208 81.9744 7.208C81.2224 7.208 80.6624 7.384 80.2944 7.736C79.9264 8.072 79.6864 8.512 79.5744 9.056L76.7904 8.12C76.9824 7.512 77.2864 6.96 77.7024 6.464C78.1344 5.952 78.7024 5.544 79.4064 5.24C80.1264 4.92 80.9984 4.76 82.0224 4.76C83.5904 4.76 84.8304 5.152 85.7424 5.936C86.6544 6.72 87.1104 7.856 87.1104 9.344V13.784C87.1104 14.264 87.3344 14.504 87.7824 14.504H88.7424V17H86.7264C86.1344 17 85.6464 16.856 85.2624 16.568C84.8784 16.28 84.6864 15.896 84.6864 15.416V15.392H84.2304C84.1664 15.584 84.0224 15.84 83.7984 16.16C83.5744 16.464 83.2224 16.736 82.7424 16.976C82.2624 17.216 81.6064 17.336 80.7744 17.336ZM81.3024 14.888C82.1504 14.888 82.8384 14.656 83.3664 14.192C83.9104 13.712 84.1824 13.08 84.1824 12.296V12.056H81.1344C80.5744 12.056 80.1344 12.176 79.8144 12.416C79.4944 12.656 79.3344 12.992 79.3344 13.424C79.3344 13.856 79.5024 14.208 79.8384 14.48C80.1744 14.752 80.6624 14.888 81.3024 14.888ZM95.8037 17.336C94.2517 17.336 92.9797 17 91.9877 16.328C90.9957 15.656 90.3957 14.696 90.1877 13.448L92.9717 12.728C93.0837 13.288 93.2677 13.728 93.5237 14.048C93.7957 14.368 94.1237 14.6 94.5077 14.744C94.9077 14.872 95.3397 14.936 95.8037 14.936C96.5077 14.936 97.0277 14.816 97.3637 14.576C97.6997 14.32 97.8677 14.008 97.8677 13.64C97.8677 13.272 97.7077 12.992 97.3877 12.8C97.0677 12.592 96.5557 12.424 95.8517 12.296L95.1797 12.176C94.3477 12.016 93.5877 11.8 92.8997 11.528C92.2117 11.24 91.6597 10.848 91.2437 10.352C90.8277 9.856 90.6197 9.216 90.6197 8.432C90.6197 7.248 91.0517 6.344 91.9157 5.72C92.7797 5.08 93.9157 4.76 95.3237 4.76C96.6517 4.76 97.7557 5.056 98.6357 5.648C99.5157 6.24 100.092 7.016 100.364 7.976L97.5557 8.84C97.4277 8.232 97.1637 7.8 96.7637 7.544C96.3797 7.288 95.8997 7.16 95.3237 7.16C94.7477 7.16 94.3077 7.264 94.0037 7.472C93.6997 7.664 93.5477 7.936 93.5477 8.288C93.5477 8.672 93.7077 8.96 94.0277 9.152C94.3477 9.328 94.7797 9.464 95.3237 9.56L95.9957 9.68C96.8917 9.84 97.6997 10.056 98.4197 10.328C99.1557 10.584 99.7317 10.96 100.148 11.456C100.58 11.936 100.796 12.592 100.796 13.424C100.796 14.672 100.34 15.64 99.4277 16.328C98.5317 17 97.3237 17.336 95.8037 17.336ZM103.446 17V0.199999H106.47V9.488H106.902L110.838 5.096H114.774L109.278 10.856L114.966 17H111.078L106.902 12.272H106.47V17H103.446Z" fill="black"/>
</svg>
